# xmcd
#
# Track frame offsets: 
#        150
#        13953
#        30855
#        44895
#        57957
#        72272
#        93359
#        117143
#        149901
#
# Disc length: 2436 seconds
#
# Revision: 0
# Processed by: cddbd v1.5.2PL0 Copyright (c) Steve Scherf et al.
# Submitted via: ExactAudioCopy v0.99pb3
#
DISCID=82098209
DTITLE=Lee Gates - Lee Gates and And The Alabama Cotton Kings
DYEAR=2003
DGENRE=Blues
TTITLE0=Sweet Lucy's Groove
TTITLE1=You Gotta Love Me Baby
TTITLE2=I Got A Honky Tonk Woman
TTITLE3=Down To The Getto
TTITLE4=Lucy's Voodoo
TTITLE5=When Baby Got The Blues
TTITLE6=I'm Going Back Home
TTITLE7=Lee's Boogie
TTITLE8=Lucy Cryin'
EXTD=
EXTT0=
EXTT1=
EXTT2=
EXTT3=
EXTT4=
EXTT5=
EXTT6=
EXTT7=
EXTT8=
PLAYORDER=
